<svg id="Layer_1" data-name="Layer 1" xmlns="http://www.w3.org/2000/svg" viewBox="0 0 10909.8 633.31"><defs><style>.cls-1,.cls-3{fill:none;}.cls-1,.cls-2,.cls-3{stroke:#6c5ffc;stroke-miterlimit:10;}.cls-1,.cls-2{stroke-width:15px;}.cls-2{fill:#fff;}.cls-3{stroke-width:13px;}.cls-4{fill:#6c5ffc;}</style></defs><path class="cls-1" d="M3710.5,796.32h-125c-13.3-4.84-19.84-14.19-21.32-28.43-2-19.35-5.45-38.54-8.14-57.81a8.35,8.35,0,0,0-4.86-7c-10.32-5.6-20.46-11.54-30.47-17.67a8.16,8.16,0,0,0-8.44-.73c-18.88,7.76-37.85,15.29-56.82,22.84-16.23,6.47-28.12,2.52-36.81-12.43q-27.17-46.73-54.13-93.57c-8.66-15-6-28,7.68-38.68,16-12.47,31.87-25,47.93-37.32,2.78-2.12,3.62-4.29,3.53-7.75-.29-11.74-.33-23.5,0-35.24.11-3.71-.82-6-3.76-8.21-16.06-12.33-32-24.86-47.92-37.34-13.41-10.5-16.11-23.49-7.66-38.19q27.09-47.12,54.39-94.09c8.35-14.36,20.93-18.56,36.48-12.36,19,7.55,37.94,15.08,56.83,22.83,3.36,1.38,5.79,1.27,9-.71,9.46-5.92,19.07-11.65,28.93-16.86,4-2.14,5.85-4.72,6.44-9.09,2.66-19.86,5.63-39.68,8.34-59.54,2.19-16.1,12.21-25.22,28.42-25.26q55-.09,110,0c16.17,0,26.1,9.17,28.33,25.33,2.82,20.42,5.76,40.83,9,61.19a10.46,10.46,0,0,0,4.53,6.29c10,6.17,20.36,11.72,30.33,17.92,3.21,2,5.65,2,9,.65,18.71-7.65,37.51-15.1,56.3-22.58,16.54-6.57,28.37-2.58,37.22,12.68q27,46.5,53.8,93.09c8.66,15,6.07,28.09-7.52,38.73-15.95,12.48-31.86,25-47.91,37.34a8.26,8.26,0,0,0-3.69,7.68q.43,17.9,0,35.82a8.26,8.26,0,0,0,3.65,7.69c16.06,12.33,32,24.85,47.92,37.33,13.63,10.66,16.23,23.67,7.58,38.7q-26.84,46.6-53.8,93.11c-8.87,15.29-20.79,19.33-37.2,12.78-19-7.56-37.94-15.06-56.82-22.82-3.25-1.33-5.52-1-8.45.78-10,6.13-20.34,11.75-30.32,17.92-2.07,1.29-4.21,4-4.58,6.26-3.25,20.56-5.79,41.23-9.27,61.74a35.59,35.59,0,0,1-7,16C3720.87,791.38,3715.15,793.41,3710.5,796.32Zm36.17-296.24a98.66,98.66,0,0,0-197.32-.44c-.32,54.57,44.06,99.08,98.73,99A98.59,98.59,0,0,0,3746.67,500.08Z" transform="translate(-194.4 -183.34)"/><path class="cls-1" d="M5001.28,716a20.4,20.4,0,0,0-1.36,2.78c-5.43,17.18-18.07,28.35-35.94,29-25.34.88-50.73.36-76.09.38a30,30,0,0,1-5.06-1v-7c0-33.61.64-67.22-.14-100.81-.94-40.07-9.38-78.29-33.14-111.67-6.77-9.51-14.47-18.36-22.17-28.05a70,70,0,0,1,34.38-17.06c23.42-4.22,47.2-4.85,70.48-.37,35.1,6.76,61.93,36,67.84,71.36a23.64,23.64,0,0,0,1.2,3.59Z" transform="translate(-194.4 -183.34)"/><path class="cls-1" d="M4660.38,789.88q-58.89,0-117.78,0c-12.27,0-23.71-2.35-33.39-10.42-10.38-8.63-16.64-19.72-16.77-33.2-.35-37.29-1.34-74.64.17-111.87,2.55-63,31.71-110.1,88.72-138.73,19.64-9.86,40.78-14.62,62.59-15.9,27.74-1.62,55.65-2.13,82.81,4.54,60.13,14.78,111.21,73,115.36,134.83,2.88,42.75,1.34,85.82,1.21,128.75,0,6-2.81,12.16-5.13,17.91-4.66,11.57-13.58,19.08-25.82,20.29-22,2.16-44,3.71-66.08,4.25-28.62.71-57.26.18-85.89.18Z" transform="translate(-194.4 -183.34)"/><path class="cls-1" d="M4668,209.27a113,113,0,0,1,113.25,113.28c-.05,62.47-51.2,113.4-113.6,113.12s-112.85-50.93-112.9-113.15A113,113,0,0,1,4668,209.27Z" transform="translate(-194.4 -183.34)"/><path class="cls-1" d="M4508.69,499.61c-7.5,9.47-15.16,18.29-21.88,27.79a174.28,174.28,0,0,0-32,93.52c-1.91,39.8-1.22,79.74-1.65,119.62,0,2.13,0,4.27,0,6.92-3.09.31-5.84.82-8.59.82-23.2,0-46.41.19-69.61-.12-24.67-.33-40.24-16.49-40.25-41.3q0-68.64,0-137.29c.06-50.05,37.24-88.54,87.28-89.33a399.81,399.81,0,0,1,54.35,3.05C4488.68,484.79,4499.41,491.5,4508.69,499.61Z" transform="translate(-194.4 -183.34)"/><path class="cls-1" d="M4439.2,292.59a71.4,71.4,0,0,1,71.27,71.74c-.17,39.4-32.69,71.67-71.89,71.32a71.53,71.53,0,1,1,.62-143.06Z" transform="translate(-194.4 -183.34)"/><path class="cls-1" d="M4897.38,292.59a71.4,71.4,0,0,1,71.34,71.68c-.14,39.4-32.59,71.66-71.82,71.38a71.53,71.53,0,1,1,.48-143.06Z" transform="translate(-194.4 -183.34)"/><path class="cls-1" d="M5983.78,415.79v4.39q0,156.12-.06,312.23c0,29.74-19,54.31-47.37,61.73a69.9,69.9,0,0,1-17.6,2.11q-230.74.18-461.49.06c-36.6,0-64.88-27.31-64.95-63.24q-.33-156.78-.08-313.55c0-1.09.11-2.17.19-3.73Zm-337,203.61c-16.39-16.46-32.32-32.58-48.39-48.55-9.29-9.23-22.05-9.5-30.65-1s-8.42,21.46.74,30.71q30.45,30.74,61.14,61.25c9.69,9.63,20.72,10.09,31.17,1.15q73-62.49,145.82-125.19c10.09-8.69,11.33-21.87,3.32-31.05s-20.9-9.44-31.18-.67c-12.23,10.42-24.39,20.93-36.59,31.4Z" transform="translate(-194.4 -183.34)"/><path class="cls-1" d="M5582.37,245.65h211.27c0-6.84-.08-13.4,0-20,.18-12.83,9.29-22.19,21.35-22,11.72.12,20.65,9.44,20.86,21.91.11,6.56,0,13.13,0,20.4h7.6c25.08,0,50.16-.08,75.25,0,37.51.16,64.84,27.56,65,65.19.1,20.27,0,40.54,0,61.3H5392.6c-.12-1.7-.36-3.6-.36-5.49,0-18.74-.1-37.48,0-56.21.21-37.12,27.68-64.61,64.78-64.78,25.08-.12,50.17,0,75.25,0h7.84c0-6.63,0-12.73,0-18.83.07-14,8.74-23.56,21.26-23.48s20.92,9.7,21,23.79C5582.39,233.35,5582.37,239.26,5582.37,245.65Z" transform="translate(-194.4 -183.34)"/><path class="cls-2" d="M5646.8,619.4l95.38-81.9c12.2-10.47,24.36-21,36.59-31.4,10.28-8.77,23.23-8.44,31.18.67s6.77,22.36-3.32,31.05Q5733.81,600.51,5660.81,663c-10.45,8.94-21.48,8.48-31.17-1.15q-30.69-30.51-61.14-61.25c-9.16-9.25-9.33-22.15-.74-30.71s21.36-8.28,30.65,1C5614.48,586.82,5630.41,602.94,5646.8,619.4Z" transform="translate(-194.4 -183.34)"/><path class="cls-3" d="M6688.19,189.84c11.9,2,24,3,35.66,6,94.64,24.65,153.84,85.14,178.56,179.23,9.11,34.68,8.44,69.93.31,104.93-.27,1.18-.54,2.36-.88,3.52a16.25,16.25,0,0,1-.9,1.95c-54.46-8.2-103.37,5.06-145.47,40.52s-63,81.78-64.92,136.51c-9.19,2.28-275.61,3.72-292.31,1.52l93.3-80.62c-10.84-17.63-22.53-33.93-31.45-51.62-41.45-82.29-27.84-187.17,32.22-257,38.16-44.39,85.71-72.11,143.49-82,6.92-1.18,13.92-1.94,20.88-2.9Zm-34.36,183.84c3.21-13,11.62-19.82,21.9-17.55,7.81,1.73,12.74,6.69,14.54,14.49,1.64,7.11-1.65,14.63-8.79,19.05-13.16,8.15-22.81,19.35-25.4,34.52-2.23,13.12-1.74,26.71-2.46,40.25h37c0-7.23.46-14.1-.1-20.88-.94-11.26,3.33-18.77,12.95-25.08,21.59-14.16,29.22-42.2,19.08-65.83a54.33,54.33,0,0,0-60.75-32c-25.39,5-45.27,29.21-43.38,53.07Zm36.35,163.58V501.67h-35.6v35.59Z" transform="translate(-194.4 -183.34)"/><path class="cls-3" d="M7017.76,678.05c-1.88,8.83-3.24,17.81-5.71,26.47a145.2,145.2,0,0,1-147.77,105.42c-67.32-3.6-123.45-53.67-135.12-120.53-16.58-94.93,63.05-179.79,158.7-169.13,67.81,7.55,120.83,59.89,128.8,127.11a27.42,27.42,0,0,0,1.1,4Zm-92.32-75.7-72.88,72.88-34.05-34.82-24.24,24.05,60.31,60.3,96.67-96.63Z" transform="translate(-194.4 -183.34)"/><path class="cls-1" d="M7445.1,361.48q129.54,48.58,259.13,97c4.85,1.8,6.16,4,6.16,9q-.24,152.41-.12,304.82v6.78L7445.1,679.68Zm141.42,319.34c0-11.62-.17-22.58.1-33.53.08-3.48-1.28-4.84-4.3-5.83-5-1.65-10-3.68-15-5.54l-51.54-19.28c0,12.14-.1,23.66.14,35.17,0,1.25,1.74,3,3.08,3.6,6.6,2.73,13.34,5.15,20,7.66Z" transform="translate(-194.4 -183.34)"/><path class="cls-1" d="M7745.62,778.84v-6q0-153-.11-306c0-4.65,1.43-6.62,5.73-8.19,25.37-9.27,50.62-18.88,75.92-28.36,2-.77,4.12-1.41,6.69-2.27v88.3l14.84-5.54c17.05-6.37,34.05-12.85,51.16-19,3.7-1.33,5-3.06,5-7.07-.2-26.33-.08-52.66-.14-79,0-2.76.21-4.61,3.44-5.81,33.26-12.31,66.45-24.84,99.66-37.29a26.22,26.22,0,0,1,3-.7v5.24q0,153.55.11,307.1c0,4.25-1.37,6-5.19,7.46q-127.57,47.63-255.07,95.47C7749.13,777.75,7747.58,778.2,7745.62,778.84Z" transform="translate(-194.4 -183.34)"/><path class="cls-1" d="M8010.41,326.25c-28.24,10.6-55.06,20.68-81.89,30.72-7.91,3-15.94,8.35-23.75,8.07-8-.3-15.88-6.08-23.75-9.6q-38.76-17.31-77.46-34.78a10.46,10.46,0,0,0-9.32-.17c-20.39,8.86-40.89,17.48-61.35,26.18-1.34.57-2.64,1.22-4.77,2.21l105.59,43.6-12.57,4.73c-29.75,11.18-59.49,22.41-89.3,33.44a11.3,11.3,0,0,1-7.26.19Q7587.21,379.54,7450,328c-1-.38-2-.89-3.86-1.73,1.94-.95,3.24-1.71,4.63-2.23q136.76-51.33,273.58-102.52a11.31,11.31,0,0,1,7.27,0Q7868.4,272.62,8005.15,324C8006.47,324.49,8007.74,325.1,8010.41,326.25Z" transform="translate(-194.4 -183.34)"/><path class="cls-1" d="M8445.85,522.56v-13c2.64-10,7-19,14.44-26.5Q8579.67,363.83,8699,244.48a47,47,0,0,1,34.38-14.38c60.77-.06,121.54-.25,182.31.08,27.21.14,45.77,19.26,45.83,46.44.14,60.37,0,120.75.05,181.13,0,13.64-4.7,25.3-14.38,35Q8827.81,612,8708.35,731.19A52,52,0,0,1,8689.71,743c-18.66,6.62-34.55.68-48.2-13q-86.9-87.07-174-173.94C8457.75,546.38,8449,536.37,8445.85,522.56ZM8806.54,352.3a33.27,33.27,0,0,0,33.07,32.95c18.16,0,33.51-15.46,33.26-33.5a33.66,33.66,0,0,0-33.22-32.95A33.29,33.29,0,0,0,8806.54,352.3Z" transform="translate(-194.4 -183.34)"/><path class="cls-1" d="M8748.84,752.64c2-1.64,3.93-3,5.6-4.67q118.09-118,236.23-236c10.43-10.39,15.24-22.09,15.18-36.82-.29-64.11-.1-128.22-.08-192.34v-7.51c19.53-2,39.87,14.74,43.36,35.33a67.2,67.2,0,0,1,.93,11.15c.06,59.79,0,119.57.09,179.36,0,14.36-4.88,26.34-15,36.49q-109,108.79-217.86,217.69C8796.75,775.75,8768.58,774.88,8748.84,752.64Z" transform="translate(-194.4 -183.34)"/><path class="cls-1" d="M9812,745c-2.52-2.14-5.4-4-7.49-6.45-55.3-65.83-110.9-131.4-169.59-194.27a17.34,17.34,0,0,1-5.07-12.88c.22-12.75,0-25.51.08-38.28,0-10.05,4.13-14,14.36-14.1,19.45-.28,38.95.06,58.34-1.19,22.37-1.45,43.74-7,62.19-20.72a64.54,64.54,0,0,0,23.76-33.28,28.49,28.49,0,0,0,.57-3.24h-144.2c-11.74,0-15-3.29-15-15.08,0-9.57,0-19.14,0-28.71,0-10.24,3.61-13.85,13.81-13.86q67.24,0,134.49,0h6.35a57.2,57.2,0,0,0-23.88-24.85c-17.23-9.76-36.14-13.29-55.54-14-19.92-.72-39.88-.39-59.82-.49-11.75-.06-15.41-3.68-15.41-15.45,0-13.24,0-26.48,0-39.72,0-9.54,3.88-13.45,13.31-13.45q142.62,0,285.25,0c9.14,0,13.1,3.89,13.23,13.12q.23,15.78,0,31.58c-.13,9.21-4,12.95-13.26,13-24.25.06-48.5,0-72.75,0H9850c3.82,6.54,7.82,12.13,10.49,18.3,3.84,8.87,6.92,18.09,9.91,27.29,1.09,3.33,2.24,4.82,6.09,4.77,17.38-.25,34.77-.14,52.16-.1,10,0,13.61,3.64,13.66,13.51,0,10.53.09,21.06,0,31.58-.09,8.57-4.09,12.51-12.72,12.54-17.39.07-34.78.1-52.16,0-3.43,0-4.91.71-5.59,4.45-5.57,30.54-19.76,56.32-43.45,76.58-21.2,18.13-46,28.92-73,34.74-7.45,1.61-15,2.8-23.12,4.3,1.42,1.65,2.59,3.08,3.83,4.43,53.82,58.27,104.22,119.45,154.55,180.69,6,7.35,4.72,13.34-4,19.29Z" transform="translate(-194.4 -183.34)"/><path class="cls-1" d="M10939,567.91h-195a502.34,502.34,0,0,1,0-135.67h195A503.15,503.15,0,0,1,10939,567.91Z" transform="translate(-194.4 -183.34)"/><path class="cls-1" d="M10749.79,397.6c9.34-39.55,21.43-77.45,47.2-109.46,7.05-8.75,15.28-16.22,25.38-21.45,13.34-6.91,26.56-6.48,39.58.72,13.19,7.29,23,18.22,31.35,30.44,18.81,27.41,29.57,58.19,37.47,90.15.72,2.91,1.31,5.85,1.95,8.79a3.45,3.45,0,0,1-.13.81Z" transform="translate(-194.4 -183.34)"/><path class="cls-1" d="M10749.81,602.37h183.37c-2.26,8.73-4.26,17.26-6.68,25.66-7.32,25.44-16.52,50.2-32,71.91a143.56,143.56,0,0,1-24.87,27.32c-18.15,15-37.12,14.88-55.86.56a105.93,105.93,0,0,1-19.13-19C10770.38,677.46,10758.73,640.66,10749.81,602.37Z" transform="translate(-194.4 -183.34)"/><path class="cls-1" d="M10973.35,567.75a549.66,549.66,0,0,0,0-135.82h5.37c34.53,0,69.07.06,103.61-.08,3.81,0,5.43.94,6.42,4.89a253.73,253.73,0,0,1-.25,127.14c-.69,2.68-1.3,4.3-4.67,4.29-36-.13-71.91-.08-107.86-.1A24,24,0,0,1,10973.35,567.75Z" transform="translate(-194.4 -183.34)"/><path class="cls-1" d="M10709.54,432.3a548.53,548.53,0,0,0,0,135.8h-5.4c-34.54,0-69.08-.07-103.62.08-3.85,0-5.42-1-6.4-4.91-10.64-42.43-10.7-84.78.25-127.14.7-2.7,1.35-4.28,4.71-4.27,36,.13,71.91.08,107.86.1A23,23,0,0,1,10709.54,432.3Z" transform="translate(-194.4 -183.34)"/><path class="cls-1" d="M10898.85,252c63.06,6.07,161.79,88.09,175.49,145.7h-106.18C10956.16,344,10939.54,292.37,10898.85,252Z" transform="translate(-194.4 -183.34)"/><path class="cls-1" d="M10784.08,252c-40.75,40.56-57.33,92-69.34,145.6h-106.26C10624.81,337.89,10721.13,257.93,10784.08,252Z" transform="translate(-194.4 -183.34)"/><path class="cls-1" d="M10898.47,748c20.64-19.28,34.54-42.5,45.59-67.59s18.4-51.19,23.93-78.06h106.37C11060.7,659.84,10960.57,743,10898.47,748Z" transform="translate(-194.4 -183.34)"/><path class="cls-1" d="M10607.88,602.32h106.88c12,53.71,28.56,105.12,68.83,145.16-16.92,1.76-75.73-26.86-104.59-51A256.65,256.65,0,0,1,10607.88,602.32Z" transform="translate(-194.4 -183.34)"/><path class="cls-1" d="M201.9,273.93c4.83-13.36,14.62-18,28.4-17.61,18.75.58,37.52.14,56.29.15,15.31,0,21.92,4.85,26.8,19.51q9.21,27.64,18.45,55.27c3.8,11.38,7.9,14.34,19.82,14.34q174.87,0,349.74,0c3.45,0,7-.09,10.34.74,12.82,3.24,19.29,16.16,14.88,29.61q-11.18,34.11-22.6,68.13Q686.52,496.66,669,549.2c-4.59,13.74-11.38,18.7-25.75,18.7H413.36c-13.43,0-16.71,2.54-20,15.43-1.16,4.54-2.44,9-3.44,13.62-1.8,8.21,2.77,14.48,11.17,15.39a56.54,56.54,0,0,0,6.25.12q128.73,0,257.48.07a38,38,0,0,1,11.78,1.4c10.12,3.34,15.79,13.55,14.21,24.42-1.45,9.91-10.14,17.72-20.45,18.33-1.38.08-2.78.09-4.17.09q-131.09,0-262.17,0c-28.92,0-51.64-18.2-57.71-46a55.88,55.88,0,0,1,.85-26.31c10.47-40.19,9.75-37.27-3.12-75.73q-32.54-97.17-64.83-194.44c-3.37-10.11-7.77-13.24-18.44-13.26-10.42,0-20.87-.42-31.27.11-13.73.69-23.09-4.63-27.6-17.83Z" transform="translate(-194.4 -183.34)"/><path class="cls-1" d="M424.16,723.44a44.41,44.41,0,1,1-44.36-44.22A44.32,44.32,0,0,1,424.16,723.44Z" transform="translate(-194.4 -183.34)"/><path class="cls-1" d="M646.79,679.22a44.41,44.41,0,0,1,0,88.82,44.41,44.41,0,1,1,0-88.82Z" transform="translate(-194.4 -183.34)"/><path class="cls-1" d="M1487.84,228.1c8.66,3.8,12.88,10.07,13.89,19.86,7.9,76.36,22,151.56,45,224.88,6.08,19.36,13.41,38.33,20.53,57.34,5.21,13.91,1.64,22.71-12.34,28.1q-64.74,24.94-129.54,49.76c-6.73,2.57-11.87,6.4-13.81,13.67-3.08,11.6,5.68,22.41,18.68,22.37,12.18,0,24,.9,35.19,6.35,24.4,11.9,39.29,38.8,35.52,64.43-4.24,28.88-25.44,51.33-53.63,54.82-41.45,5.14-75.72-8.47-100.81-42.42-26-35.13-43.81-74.52-58.6-115.35-21.08-58.2-35.34-118.2-45.26-179.2-4.63-28.41-7.78-57-11.63-85.59a12.81,12.81,0,0,0-.93-2.57V332.12c.79-1.46,1.54-2.95,2.37-4.39a17.89,17.89,0,0,1,24-7.06,98.86,98.86,0,0,1,8.56,5.45c8.55,5.64,17.08,11.31,25.92,17.17.6-1.92,1.06-3.15,1.37-4.41,3.43-13.68,6.88-27.35,10.23-41,1.79-7.33,5.78-12.53,13.23-14.74,5.9-1.76,11.11-.2,16,3.08,10.38,6.93,20.78,13.84,31.73,21.12,4-16,7.64-31.15,11.54-46.24,3.57-13.83,16.63-19,28.62-11.28,11.24,7.23,22.26,14.78,33.39,22.17,1.64,1.09,3.36,2.05,5.22,3.18,7.84-11.73,15.51-22.88,22.81-34.28,3.54-5.52,7.57-10.2,13.73-12.75Zm-40.72,182.15c.07-13.31-11.79-22.28-23.35-18.37-9,3.05-17.86,6.88-26.75,10.44-21.62,8.63-43.26,17.22-64.82,26-9.59,3.91-14,13.94-10.49,23.12s13.46,14.27,23,10.55q45.9-17.92,91.57-36.49C1443.38,422.62,1446.63,416.6,1447.12,410.25Zm-1.82,53c-1.43.44-4.54,1.17-7.47,2.34q-42.91,17.08-85.77,34.3c-11.18,4.49-16.06,14.27-12.18,24.19s14.25,13.8,25.34,9.44q23.34-9.18,46.59-18.52c14.13-5.64,28.31-11.15,42.33-17.06a18,18,0,0,0,10.74-20.25C1463,469.28,1455.57,463.24,1445.3,463.28Z" transform="translate(-194.4 -183.34)"/><path class="cls-1" d="M1809,623.2c-.51,27.48-8.7,47.79-24.82,64.75-2.48,2.61-6,4.45-9.43,5.9-13.65,5.85-27.42,11.4-41.15,17-68.81,28.32-137.68,56.47-206.36,85.09-13.33,5.56-26.55,10.48-41.11,10.94-3.32.11-6.69.22-7.78-3.83s2.07-5.57,4.94-7.09c62.65-33.35,73.08-114.17,21-162.7-7.87-7.34-6.75-14.18,3.06-17.94,65.79-25.29,131.69-50.3,197.35-75.94,17.57-6.86,34-3.35,49.67,3.73C1790.22,559.35,1806.84,588.76,1809,623.2Z" transform="translate(-194.4 -183.34)"/><path class="cls-2" d="M2297.67,191.91h412c27.39,10.4,34.28,20.51,34.28,50.38,0,36.83-.17,73.67.13,110.51.07,7.55-2.55,12.58-8.23,17.42q-90.46,77.16-180.61,154.7a34.56,34.56,0,0,0-11.37,17.92q-8.1,30.72-16.56,61.36a17.2,17.2,0,0,1-4.43,7.45c-12.95,12.49-14.45,30.71-3.3,43.65,11,12.74,29.1,14.05,43.2,3.38a17.27,17.27,0,0,1,8-3.39c17.48-2.08,35-4,52.51-5.61,13.88-1.24,26.56-4.41,36.69-15.12,6.15-6.5,13.54-11.84,20.4-17.69,5.6-4.76,6.82-4.62,11.54,1.18,11,13.47,28,16,42.41,6.43,2-1.29,5.66-2.79,6.75-1.92,1.75,1.38,2.75,4.67,2.76,7.15q.23,67,.07,133.94c-.11,26.45-17.38,43.33-43.9,43.34Q2558,807,2416,807c-10.86,0-14-3.08-14-13.81q0-42.95,0-85.89c0-24.24-14.27-38.57-38.33-38.59q-42,0-84.09,0c-13.54,0-16.06-2.53-16.06-16.15q0-207.21,0-414.42c0-3,0-6,.31-9,1.45-14.66,8.83-25.5,21.73-32.42C2289.32,194.66,2293.6,193.48,2297.67,191.91Z" transform="translate(-194.4 -183.34)"/><path class="cls-4" d="M2692.68,436.75c3,2,6.25,3.34,8.31,5.71q28.52,32.84,56.66,66c4.9,5.75,4.45,11.22-1.37,16.23q-50,43-100.18,85.93c-6,5.13-11.49,4.6-16.7-1.33q-28.33-32.22-56.55-64.53c-5.75-6.59-5.41-11.75,1.28-17.51q50-43,100.23-85.88C2686.52,439.53,2689.4,438.54,2692.68,436.75Z" transform="translate(-194.4 -183.34)"/><path class="cls-4" d="M2796.19,490.61c8.08,10.87,11.59,22.53,8.58,35.76a39.65,39.65,0,0,1-12.9,21.82q-33.64,29-67.43,57.87c-5.87,5-11.8,4.8-15.84-.15s-3.1-10.57,2.8-15.63c21.7-18.66,43.47-37.24,65.11-56,11.14-9.63,12-21.29,2.34-32.6-20.23-23.77-40.62-47.42-60.91-71.15-6.84-8-6.52-12.46,1.32-19.23,11.37-9.81,22.7-19.65,34.19-29.31,22.52-18.92,52.63-16.68,72.75,4.82,15.15,16.18,21.48,34.35,14.55,56.07-2.94,9.2-8.48,16.69-15.78,22.94C2815.43,474.05,2805.9,482.26,2796.19,490.61Z" transform="translate(-194.4 -183.34)"/><path class="cls-1" d="M2325.25,689.17c13.2,0,26.4,0,39.6,0,10.66,0,16.47,5.52,16.53,16.17q.23,40.49-.1,81c0,2.34-1.66,5.58-3.55,6.67-1.33.77-5-.77-6.54-2.32q-45.78-45.42-91.19-91.22c-1.66-1.68-3.1-5.35-2.35-7.1s4.4-3,6.81-3.07C2298.05,689,2311.65,689.17,2325.25,689.17Z" transform="translate(-194.4 -183.34)"/><path class="cls-4" d="M2542.43,646.82c-3.18-2.59-7.33-4.35-8.35-7.22-1.12-3.17-.7-9.39,1.37-10.76,10.55-7,11.44-18.17,14.34-28.55,3.33-11.93,6.3-23.95,9.72-35.85.64-2.22,2.53-5.46,4.16-5.67,2.16-.27,5.27,1.42,6.89,3.24q25.14,28.22,49.81,56.86c1.58,1.84,2.79,5.19,2.2,7.29-.44,1.57-4,3-6.26,3.23-17.06,2.08-34.14,4.09-51.25,5.62a20.69,20.69,0,0,0-12.8,5.49C2549.7,642.81,2546.42,644.31,2542.43,646.82Z" transform="translate(-194.4 -183.34)"/><line class="cls-1" x1="2124.1" y1="67.16" x2="2495.1" y2="66.16"/><line class="cls-1" x1="2124.6" y1="115.16" x2="2495.6" y2="114.16"/><line class="cls-1" x1="2124.6" y1="167.16" x2="2410.1" y2="166.16"/><line class="cls-1" x1="2444.6" y1="166.16" x2="2502.1" y2="166.16"/><line class="cls-1" x1="2419.6" y1="212.27" x2="2198.77" y2="214.92"/><line class="cls-1" x1="2172.09" y1="215.15" x2="2127.61" y2="215.53"/></svg>